<svg width="64" height="64" viewBox="0 0 64 64" fill="none" xmlns="http://www.w3.org/2000/svg">
<rect x="1.5" y="1.5" width="61" height="61" rx="15.5" stroke="#D4B77C" stroke-width="3"/>
<path d="M22.6108 47V17.1818H32.6861C35.0253 17.1818 36.9375 17.604 38.4226 18.4485C39.9174 19.2833 41.0239 20.4141 41.7422 21.8409C42.4605 23.2678 42.8196 24.8596 42.8196 26.6165C42.8196 28.3733 42.4605 29.9701 41.7422 31.4066C41.0336 32.8432 39.9368 33.9885 38.4517 34.8427C36.9666 35.6871 35.0642 36.1094 32.7443 36.1094H25.5227V32.9062H32.6278C34.2294 32.9062 35.5155 32.6296 36.4862 32.0763C37.4568 31.5231 38.1605 30.7757 38.5973 29.8342C39.0438 28.8829 39.267 27.8104 39.267 26.6165C39.267 25.4226 39.0438 24.3549 38.5973 23.4134C38.1605 22.4718 37.4519 21.7341 36.4716 21.2003C35.4912 20.6567 34.1906 20.3849 32.5696 20.3849H26.2216V47H22.6108Z" fill="#D4B77C"/>
</svg>
