<svg width="89" height="64" viewBox="0 0 89 64" fill="none" xmlns="http://www.w3.org/2000/svg">
<g clip-path="url(#clip0_156_297)">
<path fill-rule="evenodd" clip-rule="evenodd" d="M15.3803 23.7594C13.7569 23.2412 10.2057 22.4685 7.32878 24.3901C5.10127 25.8777 3.09229 29.0527 3.08605 35.6478H1.56098C0.699317 35.6478 0 36.3471 0 37.2088V63.7454C0 64.607 0.699317 65.3064 1.56098 65.3064H4.68293C5.92546 65.3064 7.11649 64.8131 7.99376 63.9343C8.87259 63.057 9.36585 61.866 9.36585 60.6234V55.16H16.3902C17.8638 55.16 19.1813 54.4779 20.0382 53.4117C20.1194 53.3571 20.1959 53.2931 20.2677 53.2213L37.5212 35.9678L65.255 43.3996C66.087 43.6228 66.9424 43.128 67.1657 42.296L67.8291 39.8234L73.2566 41.2767C75.7557 41.9463 78.3235 40.465 78.9916 37.9659L80.7352 31.4628L87.1789 25.4593C88.0125 24.682 88.3606 23.5128 88.0843 22.4076C87.8096 21.3009 86.9557 20.4299 85.8537 20.1348L18.7395 2.10713C17.9403 1.89171 17.088 2.00411 16.37 2.41776C15.6519 2.83142 15.129 3.51357 14.9151 4.31279L11.0517 18.7268C10.83 19.5604 11.3233 20.4158 12.1553 20.639L16 21.6693L15.3803 23.7594ZM4.67356 38.7698H3.12195V62.1844H4.68293C5.09659 62.1844 5.49463 62.0205 5.78654 61.727C6.08 61.4351 6.2439 61.0371 6.2439 60.6234V40.3307C6.2439 39.9171 6.08 39.519 5.78654 39.2271C5.49463 38.9352 5.09815 38.7698 4.68605 38.7698C4.68137 38.7698 4.67668 38.7698 4.67356 38.7698ZM9.36585 48.9161V52.0381H11.9742C11.801 51.5495 11.7073 51.025 11.7073 50.4771C11.7073 49.9292 11.801 49.4047 11.9742 48.9161H9.36585ZM16.3902 48.9161C17.2519 48.9161 17.9512 49.6154 17.9512 50.4771C17.9512 51.3387 17.2519 52.0381 16.3902 52.0381C15.5286 52.0381 14.8293 51.3387 14.8293 50.4771C14.8293 49.6154 15.5286 48.9161 16.3902 48.9161ZM20.6158 48.4587L34.0386 35.0359L30.5577 34.1024L18.4086 46.2515C19.3733 46.712 20.1553 47.4941 20.6158 48.4587ZM14.4999 26.73C13.5009 26.3569 11.0392 25.6669 9.06146 26.9875C7.32722 28.1458 6.14868 30.7385 6.20644 35.9023C6.87298 36.1317 7.48644 36.511 7.99376 37.0199C8.87259 37.8972 9.36585 39.0882 9.36585 40.3307V45.7942H14.45L27.0751 33.169L15.2055 29.9893C14.7996 29.88 14.4531 29.6115 14.247 29.2447C14.0425 28.8763 13.9941 28.4423 14.1128 28.0381L14.4999 26.73ZM19.0158 22.4779L17.561 27.3887L64.5541 39.9795L67.4794 29.0636L62.9526 27.8507L59.008 32.2995C58.6162 32.7413 58.0074 32.9255 57.4361 32.7725L19.0158 22.4779ZM77.4306 31.7298L75.9774 37.1573C75.7541 37.9908 74.8972 38.4857 74.0652 38.2624L68.6361 36.8076L70.4952 29.8706L77.4306 31.7298ZM78.912 28.895L85.0513 23.1756C85.0544 23.1709 85.056 23.1663 85.056 23.16C85.0544 23.1553 85.0498 23.1506 85.0451 23.1491L17.9309 5.12137L14.4718 18.0275L16.2966 18.5177C16.3138 18.5208 16.3309 18.5255 16.3481 18.5302L57.3128 29.5069L61.2574 25.0566C61.6492 24.6148 62.258 24.4322 62.8293 24.5852L78.912 28.895ZM39.1102 15.5799C40.2092 15.8734 40.8617 17.0051 40.5682 18.1024C40.2732 19.2014 39.143 19.8539 38.0441 19.5604C36.9452 19.2654 36.2927 18.1352 36.5877 17.0363C36.8812 15.9374 38.0113 15.2849 39.1102 15.5799ZM31.1493 13.4461C32.2482 13.7411 32.9007 14.8712 32.6057 15.9702C32.3122 17.0675 31.1805 17.7216 30.0831 17.4265C28.9842 17.1331 28.3317 16.0014 28.6252 14.9024C28.9202 13.8051 30.0503 13.151 31.1493 13.4461ZM23.1883 11.3122C24.2872 11.6072 24.9397 12.7374 24.6447 13.8363C24.3512 14.9352 23.2195 15.5877 22.1221 15.2943C21.0232 14.9992 20.3707 13.8691 20.6642 12.7702C20.9592 11.6712 22.0894 11.0187 23.1883 11.3122Z" fill="#D4B77C"/>
</g>
<defs>
<clipPath id="clip0_156_297">
<rect width="88.9756" height="64" fill="white"/>
</clipPath>
</defs>
</svg>
