<svg width="94" height="64" viewBox="0 0 94 64" fill="none" xmlns="http://www.w3.org/2000/svg">
<rect width="94" height="64" rx="11" fill="#D4B77C"/>
<path d="M22 32C22 44.1503 12.1503 54 0 54C0 54 0 44.1503 0 32C0 19.8497 0 10 0 10C12.1503 10 22 19.8497 22 32Z" fill="white"/>
<path d="M71.6818 32C71.6818 44.1503 81.6117 54 93.8608 54C93.8608 54 93.8608 44.1503 93.8608 32C93.8608 19.8497 93.8608 10 93.8608 10C81.6117 10 71.6818 19.8497 71.6818 32Z" fill="white"/>
<path d="M19 32C19 41.9411 10.4934 50 0 50C0 50 0.000131822 41.9411 0.000131822 32C0.000131822 22.0589 0 14 0 14C10.4934 14 19 22.0589 19 32Z" fill="#D4B77C"/>
<path d="M75.7144 32C75.7144 41.9411 83.8388 50 93.8608 50C93.8608 50 93.8607 41.9411 93.8607 32C93.8607 22.0589 93.8608 14 93.8608 14C83.8388 14 75.7144 22.0589 75.7144 32Z" fill="#D4B77C"/>
<ellipse cx="47.4171" cy="31.8619" rx="10.7071" ry="10.6207" fill="white"/>
<ellipse cx="47.4174" cy="31.8626" rx="7.09172" ry="7.03448" fill="#D4B77C"/>
<rect x="45.0532" width="4.1716" height="64" fill="white"/>
</svg>
