<svg width="71" height="64" viewBox="0 0 71 64" fill="none" xmlns="http://www.w3.org/2000/svg">
<g clip-path="url(#clip0_156_320)">
<path d="M0 38.286H11.4286V61.7146H1.14286V64.0003H24V61.7146H13.7143V38.286H57.1429V61.7146H46.8571V64.0003H69.7143V61.7146H59.4286V38.286H70.8571V18.8574H0V38.286ZM34.9714 36.0003H21.0286L35.8857 21.1431H49.7714L34.9714 36.0003ZM53.0286 21.1431H66.9143L52.0571 36.0003H38.1714L53.0286 21.1431ZM17.8286 36.0003H3.88571L18.7429 21.1431H32.6286L17.8286 36.0003ZM55.3143 36.0003L68.5714 22.7431V36.0003H55.3143ZM15.5429 21.1431L2.28571 34.4003V21.1431H15.5429Z" fill="#D4B77C"/>
<path d="M12.5716 16.8571C15.5431 16.8571 18.0002 14.4 18.0002 11.4286C18.0002 8.45714 15.5431 6 12.5716 6C9.60021 6 7.14307 8.45714 7.14307 11.4286C7.14307 14.4 9.60021 16.8571 12.5716 16.8571ZM12.5716 8.28571C14.2859 8.28571 15.7145 9.71429 15.7145 11.4286C15.7145 13.1429 14.2859 14.5714 12.5716 14.5714C10.8574 14.5714 9.42878 13.1429 9.42878 11.4286C9.42878 9.71429 10.8574 8.28571 12.5716 8.28571Z" fill="#D4B77C"/>
<path d="M58.2855 16.8571C61.2569 16.8571 63.7141 14.4 63.7141 11.4286C63.7141 8.45714 61.2569 6 58.2855 6C55.3141 6 52.8569 8.45714 52.8569 11.4286C52.8569 14.4 55.3141 16.8571 58.2855 16.8571ZM58.2855 8.28571C59.9998 8.28571 61.4284 9.71429 61.4284 11.4286C61.4284 13.1429 59.9998 14.5714 58.2855 14.5714C56.5712 14.5714 55.1426 13.1429 55.1426 11.4286C55.1426 9.71429 56.5712 8.28571 58.2855 8.28571Z" fill="#D4B77C"/>
<path d="M47.4288 13.8854L49.6574 13.3711C49.4859 12.7425 49.4288 12.0568 49.4288 11.3711H47.1431C47.1431 12.2282 47.2574 13.0854 47.4288 13.8854Z" fill="#D4B77C"/>
<path d="M55.8287 0.571289C55.0287 0.742718 54.2287 1.02843 53.4858 1.37129L54.4573 3.42843C55.0287 3.14272 55.6573 2.91415 56.343 2.79986L55.8287 0.571289Z" fill="#D4B77C"/>
<path d="M66.2859 7.54275L68.343 6.57132C68.0002 5.82846 67.543 5.0856 67.0288 4.45703L65.2573 5.8856C65.6002 6.39989 66.0002 6.97132 66.2859 7.54275Z" fill="#D4B77C"/>
<path d="M60.7428 0.571289L60.2285 2.79986C60.8571 2.97129 61.4857 3.14272 62.1142 3.42843L63.0857 1.37129C62.3428 1.02843 61.5999 0.742718 60.7428 0.571289Z" fill="#D4B77C"/>
<path d="M69.4283 11.4287H67.1426C67.1426 12.0573 67.0855 12.743 66.9141 13.3716L69.1426 13.8859C69.3712 13.0859 69.4283 12.2287 69.4283 11.4287Z" fill="#D4B77C"/>
<path d="M51.3714 5.8856L49.5999 4.45703C49.0856 5.0856 48.6285 5.82846 48.2856 6.57132L50.3428 7.54275C50.5714 6.97132 50.9714 6.39989 51.3714 5.8856Z" fill="#D4B77C"/>
<path d="M5.657 5.8856L3.88557 4.45703C3.37129 5.0856 2.91415 5.82846 2.57129 6.57132L4.62843 7.54275C4.857 6.97132 5.257 6.39989 5.657 5.8856Z" fill="#D4B77C"/>
<path d="M22.6287 6.57132C22.2858 5.82846 21.8287 5.0856 21.3144 4.45703L19.543 5.8856C19.943 6.39989 20.2858 6.97132 20.6287 7.54275L22.6287 6.57132Z" fill="#D4B77C"/>
<path d="M15.0284 0.571289L14.5142 2.79986C15.1427 2.97129 15.7713 3.14272 16.3999 3.42843L17.3713 1.37129C16.6284 1.02843 15.8284 0.742718 15.0284 0.571289Z" fill="#D4B77C"/>
<path d="M10.1143 0.571289C9.31434 0.742718 8.51434 1.02843 7.77148 1.37129L8.74291 3.42843C9.31434 3.14272 9.94291 2.91415 10.6286 2.79986L10.1143 0.571289Z" fill="#D4B77C"/>
<path d="M23.7145 11.4287H21.4288C21.4288 12.0573 21.3716 12.743 21.2002 13.3716L23.4288 13.8859C23.6002 13.0859 23.7145 12.2287 23.7145 11.4287Z" fill="#D4B77C"/>
<path d="M3.943 13.3711C3.77157 12.7425 3.71443 12.0568 3.71443 11.3711H1.42871C1.42871 12.1711 1.543 13.0282 1.71443 13.8282L3.943 13.3711Z" fill="#D4B77C"/>
</g>
<defs>
<clipPath id="clip0_156_320">
<rect width="70.8571" height="64" fill="white"/>
</clipPath>
</defs>
</svg>
