<svg width="195" height="195" viewBox="0 0 195 195" fill="none" xmlns="http://www.w3.org/2000/svg">
<circle cx="97.5" cy="97.5" r="97.5" fill="#D4B77C"/>
<path d="M58.9056 94.501C57.8801 93.4241 56.8927 93.001 55.4056 93.001C53.9186 93.001 52.5706 93.1709 51.9056 94.501C50.9058 96.501 51.1247 101.88 51.9056 106.501C52.6259 110.763 53.0353 113.387 55.4056 117.001C57.6028 120.351 61.8082 122.001 62.9056 124.001C64.003 126.001 63.0961 131.463 64.4056 136.001C65.786 140.784 67.1247 143.372 69.9056 147.501C72.3785 151.173 74.0292 153.138 77.4056 156.001C80.4212 158.558 83.4056 160.001 85.9056 161.501C88.6509 163.148 109.906 162.501 112.906 161.501C117.462 159.982 122.088 152.768 126.406 146.001C128.896 142.099 130.422 139.886 131.906 135.501C133.366 131.183 133.095 127.242 133.906 124.001C134.406 122.001 138.366 119.797 140.406 116.501C142.619 112.924 143.682 110.644 144.406 106.501C144.93 103.501 145.048 98.501 144.406 96.501C143.871 94.8383 143.974 94.2702 142.406 93.501C140.789 92.7081 139.034 93.0982 137.906 94.501" stroke="white" stroke-width="2"/>
<path d="M53.9058 77.5011C53.9058 77.5011 48.7928 81.5009 48.4058 82.5011C47.8253 84.001 47.9056 87.0012 48.4058 88.5011C48.9059 90.0009 66.4058 88.5011 66.4058 88.5011C66.4058 88.5011 77.5711 91.5848 84.9058 92.5011C95.1748 93.784 101.162 93.9732 111.406 92.5011C119.187 91.3828 130.906 87.5011 130.906 87.5011C130.906 87.5011 146.593 88.501 146.906 87.5011C147.218 86.5012 147.177 83.501 146.906 82.5011C146.635 81.5012 140.906 76.0011 140.906 76.0011C140.906 76.0011 141.849 67.9895 140.906 63.0011C139.929 57.835 138.756 54.9192 135.906 50.5011C132.762 45.628 130.2 43.2639 125.406 40.0011C120.488 36.6543 117.141 35.5778 111.406 34.0011C105.707 32.4346 102.315 31.9744 96.4058 32.0011C90.6896 32.0269 87.3591 32.2877 81.9058 34.0011C76.2402 35.7811 73.2185 37.5218 68.4058 41.0011L68.297 41.0797C63.9967 44.1884 61.3915 46.0718 58.4058 50.5011C55.467 54.8607 54.3516 57.8293 53.4058 63.0011C52.3864 68.5746 53.9058 77.5011 53.9058 77.5011Z" fill="white"/>
<path d="M83.9468 68.001H80.5198V58.019H77.3688C77.2154 59.859 77.0238 61.4306 76.7938 62.734C76.5791 64.022 76.3031 65.0723 75.9658 65.885C75.6438 66.6976 75.2298 67.2956 74.7238 67.679C74.2178 68.047 73.5968 68.231 72.8608 68.231C72.4621 68.231 72.1018 68.2003 71.7798 68.139C71.4578 68.0776 71.1664 67.9856 70.9058 67.863V65.126C71.0744 65.1873 71.2508 65.241 71.4348 65.287C71.6188 65.333 71.8104 65.356 72.0098 65.356C72.2244 65.356 72.4238 65.2716 72.6078 65.103C72.8071 64.9343 72.9911 64.6353 73.1598 64.206C73.3438 63.7766 73.5124 63.1863 73.6658 62.435C73.8191 61.6836 73.9571 60.7406 74.0798 59.606C74.2178 58.456 74.3404 57.0683 74.4478 55.443H83.9468V68.001ZM98.932 61.699C98.932 62.7416 98.7863 63.6693 98.495 64.482C98.219 65.2946 97.8126 65.9846 97.276 66.552C96.7546 67.104 96.1183 67.5256 95.367 67.817C94.6156 68.093 93.7646 68.231 92.814 68.231C91.94 68.231 91.1273 68.093 90.376 67.817C89.64 67.5256 89.0036 67.104 88.467 66.552C87.9303 65.9846 87.5086 65.2946 87.202 64.482C86.9106 63.6693 86.765 62.7416 86.765 61.699C86.765 60.3036 87.0103 59.1306 87.501 58.18C87.9916 57.214 88.697 56.478 89.617 55.972C90.537 55.466 91.6256 55.213 92.883 55.213C94.0636 55.213 95.1063 55.466 96.011 55.972C96.9156 56.478 97.6286 57.214 98.15 58.18C98.6713 59.1306 98.932 60.3036 98.932 61.699ZM90.261 61.699C90.261 62.527 90.3453 63.2246 90.514 63.792C90.698 64.344 90.9816 64.7656 91.365 65.057C91.7483 65.333 92.2466 65.471 92.86 65.471C93.4733 65.471 93.964 65.333 94.332 65.057C94.7153 64.7656 94.9913 64.344 95.16 63.792C95.344 63.2246 95.436 62.527 95.436 61.699C95.436 60.871 95.344 60.181 95.16 59.629C94.9913 59.077 94.7153 58.663 94.332 58.387C93.9486 58.111 93.4503 57.973 92.837 57.973C91.9323 57.973 91.273 58.2873 90.859 58.916C90.4603 59.5293 90.261 60.457 90.261 61.699ZM110.435 55.443V58.019H105.191V68.001H101.764V55.443H110.435ZM123.931 61.699C123.931 62.7416 123.785 63.6693 123.494 64.482C123.218 65.2946 122.812 65.9846 122.275 66.552C121.754 67.104 121.117 67.5256 120.366 67.817C119.615 68.093 118.764 68.231 117.813 68.231C116.939 68.231 116.126 68.093 115.375 67.817C114.639 67.5256 114.003 67.104 113.466 66.552C112.929 65.9846 112.508 65.2946 112.201 64.482C111.91 63.6693 111.764 62.7416 111.764 61.699C111.764 60.3036 112.009 59.1306 112.5 58.18C112.991 57.214 113.696 56.478 114.616 55.972C115.536 55.466 116.625 55.213 117.882 55.213C119.063 55.213 120.105 55.466 121.01 55.972C121.915 56.478 122.628 57.214 123.149 58.18C123.67 59.1306 123.931 60.3036 123.931 61.699ZM115.26 61.699C115.26 62.527 115.344 63.2246 115.513 63.792C115.697 64.344 115.981 64.7656 116.364 65.057C116.747 65.333 117.246 65.471 117.859 65.471C118.472 65.471 118.963 65.333 119.331 65.057C119.714 64.7656 119.99 64.344 120.159 63.792C120.343 63.2246 120.435 62.527 120.435 61.699C120.435 60.871 120.343 60.181 120.159 59.629C119.99 59.077 119.714 58.663 119.331 58.387C118.948 58.111 118.449 57.973 117.836 57.973C116.931 57.973 116.272 58.2873 115.858 58.916C115.459 59.5293 115.26 60.457 115.26 61.699Z" fill="#D4B77C"/>
</svg>
