<svg width="195" height="195" viewBox="0 0 195 195" fill="none" xmlns="http://www.w3.org/2000/svg">
<circle cx="97.5" cy="97.5" r="97.5" fill="#D4B77C"/>
<path d="M135 91.5V81.5M135 81.5V65L142 47L152.5 71L135 81.5ZM62 91.5V80M62 80V65L55 48L45.5 71L62 80ZM66 149H131.5" stroke="white" stroke-width="2"/>
<path d="M46 70.5L54.5 46L74 39H81.5C81.5 39 82.3604 43.3953 83.5 46C84.3058 47.8418 84.646 49.014 86 50.5C87.4225 52.0612 88.6305 52.5171 90.5 53.5C92.3615 54.4787 93.9392 54.9714 96 55.3905C98.2961 55.8575 99.7039 55.8575 102 55.3905C104.061 54.9714 106.145 53.99 108 53C110.343 51.7497 110.699 51 112 49.5C114.118 47.0585 115.5 42 115.5 42L116.5 39H125L142 45L143.5 46.5L154 74V81.5L135 91.5V139V149H132.5V157H65.5V149H64L62 147.5V104.5V91.5L44 80.5V73L46 70.5Z" stroke="white" stroke-width="2"/>
<path d="M73.5 39C73.5 39 73.633 44.2457 74.5 46.5C75.7262 49.688 76.8929 51.3117 79 54C81.0442 56.6081 82.2244 58.1898 85 60C87.6423 61.7232 89.4129 62.8511 92.5 63.5C94.4204 63.9036 96.0409 63.8862 98 64C100.729 64.1585 101.813 64.0003 104.5 63.5C107.174 63.0022 108.582 62.2454 111 61C113.503 59.7104 114.981 58.4631 117 56.5C119.641 53.9317 120.495 52.3626 122 49C122.682 47.4773 123.106 46.6212 123.5 45C123.871 43.4702 124 39 124 39" stroke="white" stroke-width="2"/>
<rect x="39" y="106.5" width="118" height="30" rx="3" fill="#D4B77C" stroke="white" stroke-width="2"/>
<line x1="55" y1="114.5" x2="55" y2="105.5" stroke="white" stroke-width="2"/>
<line x1="76" y1="114.5" x2="76" y2="105.5" stroke="white" stroke-width="2"/>
<line x1="98" y1="117.5" x2="98" y2="105.5" stroke="white" stroke-width="2"/>
<line x1="66" y1="117.5" x2="66" y2="105.5" stroke="white" stroke-width="2"/>
<line x1="87" y1="113.5" x2="87" y2="105.5" stroke="white" stroke-width="2"/>
<line x1="109" y1="113.5" x2="109" y2="105.5" stroke="white" stroke-width="2"/>
<line x1="119" y1="113.5" x2="119" y2="105.5" stroke="white" stroke-width="2"/>
<line x1="140" y1="113.5" x2="140" y2="105.5" stroke="white" stroke-width="2"/>
<line x1="130" y1="118.5" x2="130" y2="105.5" stroke="white" stroke-width="2"/>
</svg>
