<svg width="54" height="40" viewBox="0 0 54 40" fill="none" xmlns="http://www.w3.org/2000/svg">
<path d="M50 0H3.33333C2.44928 0 1.60143 0.351189 0.976311 0.976311C0.351189 1.60143 0 2.44928 0 3.33333V36.6667C0 37.5507 0.351189 38.3986 0.976311 39.0237C1.60143 39.6488 2.44928 40 3.33333 40H50C50.8841 40 51.7319 39.6488 52.357 39.0237C52.9821 38.3986 53.3333 37.5507 53.3333 36.6667V3.33333C53.3333 2.44928 52.9821 1.60143 52.357 0.976311C51.7319 0.351189 50.8841 0 50 0ZM47.4333 36.6667H6.1L17.7667 24.6L15.3667 22.2833L3.33333 34.7333V5.86667L24.05 26.4833C24.6745 27.1042 25.5194 27.4526 26.4 27.4526C27.2806 27.4526 28.1255 27.1042 28.75 26.4833L50 5.35V34.5167L37.7333 22.25L35.3833 24.6L47.4333 36.6667ZM5.51667 3.33333H47.3L26.4 24.1167L5.51667 3.33333Z" fill="#D4B77C"/>
</svg>
