<svg width="512" height="512" viewBox="0 0 512 512" fill="none" xmlns="http://www.w3.org/2000/svg">
<rect width="512" height="512" rx="256" fill="#D4B77C"/>
<rect x="38" y="38" width="435" height="435" rx="217.5" fill="white" stroke="white" stroke-width="18"/>
<path d="M369.648 351.355V308.899C369.648 286.414 369.648 282.272 369.349 277.538C369.051 272.509 367.856 270.142 362.93 269.107C361.735 268.811 359.197 268.663 357.107 268.663C355.465 268.663 354.569 268.367 354.569 267.331C354.569 266.296 355.614 266 357.854 266C365.766 266 375.172 266.444 379.054 266.444C382.637 266.444 392.042 266 397.865 266C399.955 266 401 266.296 401 267.331C401 268.367 400.104 268.663 398.313 268.663C396.67 268.663 395.775 268.811 393.983 269.107C389.952 269.846 388.758 272.361 388.459 277.538C388.161 282.272 388.161 286.414 388.161 308.899V336.266C388.161 342.627 388.608 349.728 388.608 357.124C388.608 365.556 388.011 375.024 385.025 383.308C381.89 392.331 373.977 402.538 359.645 411.266C357.704 412.45 355.315 413.633 352.18 415.112C351.135 415.704 349.941 416 349.194 416C348.597 416 348 415.556 348 414.817C348 414.077 348.746 413.485 351.285 412.154C353.225 411.118 355.465 409.491 358.451 406.533C369.797 395.142 369.648 380.349 369.648 351.355Z" fill="black"/>
<path d="M255.973 248.841H190.13C188.654 248.841 188.063 249.432 187.473 251.206L171.529 293.481C168.576 300.871 167.1 307.967 167.1 311.514C167.1 316.835 169.757 320.679 178.91 320.679H183.339C186.882 320.679 187.768 321.27 187.768 323.044C187.768 325.409 185.996 326 182.748 326C173.3 326 160.604 325.113 151.451 325.113C148.203 325.113 131.964 326 116.61 326C112.772 326 111 325.409 111 323.044C111 321.27 112.181 320.679 114.543 320.679C117.2 320.679 121.334 320.383 123.696 320.087C137.278 318.314 142.888 308.262 148.793 293.481L222.904 107.825C226.447 99.2519 228.219 96 231.171 96C233.829 96 235.6 98.6607 238.553 105.46C245.639 121.72 292.881 242.337 311.778 287.272C322.998 313.879 331.56 318.018 337.761 319.496C342.19 320.383 346.618 320.679 350.162 320.679C352.524 320.679 354 320.974 354 323.044C354 325.409 351.343 326 340.418 326C329.789 326 308.235 326 284.614 325.409C279.299 325.113 275.756 325.113 275.756 323.044C275.756 321.27 276.937 320.679 279.889 320.383C281.956 319.792 284.023 317.131 282.547 313.584L258.926 250.91C258.335 249.432 257.45 248.841 255.973 248.841ZM196.035 234.059H250.363C251.84 234.059 252.135 233.172 251.84 232.285L225.266 159.265C224.971 158.082 224.676 156.604 223.79 156.604C222.904 156.604 222.313 158.082 222.018 159.265L194.854 231.99C194.559 233.172 194.854 234.059 196.035 234.059Z" fill="black"/>
</svg>
